<svg width="31" height="30" viewBox="0 0 31 30" fill="none" xmlns="http://www.w3.org/2000/svg">
<path d="M14.9196 3.09047C15.21 2.15083 16.54 2.15083 16.8304 3.09047L19.1985 10.7528C19.3279 11.1718 19.7153 11.4575 20.1539 11.4575H27.9188C28.8754 11.4575 29.286 12.6715 28.5259 13.2521L22.158 18.1171C21.825 18.3715 21.686 18.8066 21.8097 19.207L24.2211 27.0097C24.5086 27.9399 23.4324 28.6907 22.6587 28.0996L16.482 23.381C16.1236 23.1073 15.6263 23.1072 15.2679 23.381L9.08993 28.1C8.31622 28.691 7.24002 27.9402 7.5275 27.01L9.93905 19.2069C10.0628 18.8066 9.92376 18.3715 9.59077 18.1171L3.2237 13.2521C2.46368 12.6714 2.87435 11.4575 3.83084 11.4575H11.5961C12.0347 11.4575 12.4221 11.1718 12.5515 10.7528L14.9196 3.09047Z" fill="#597393" />
</svg>
