<svg width="9" height="16" viewBox="0 0 9 16" fill="none" xmlns="http://www.w3.org/2000/svg">
<path d="M3.12766 15.6418C3.10343 15.6418 3.07964 15.6383 3.05541 15.6305C2.95277 15.5952 2.89065 15.4909 2.91092 15.3852L3.91094 10.0705H0.869895C0.794122 10.0705 0.723635 10.0322 0.683546 9.96872C0.643017 9.90567 0.63817 9.8261 0.671211 9.7587L5.18763 0.485793C5.22508 0.40883 5.30261 0.362305 5.38587 0.362305C5.40702 0.362305 5.42861 0.365348 5.44975 0.37187C5.55372 0.402743 5.61848 0.50362 5.6035 0.609716L4.79247 6.33234H7.84541C7.9225 6.33234 7.99387 6.37191 8.03396 6.4367C8.07405 6.50149 8.07581 6.5828 8.03969 6.65019L3.32194 15.5257C3.28317 15.5987 3.20784 15.6418 3.12766 15.6418Z" fill="#597393"/>
<path d="M5.38574 0.577639L4.53858 6.54768H7.84528L3.12709 15.4223L4.17558 9.85098H0.868882L5.38574 0.577639ZM5.38574 0.142822C5.2201 0.142822 5.06371 0.235438 4.98881 0.389363L0.471955 9.66227C0.406315 9.7975 0.415566 9.95534 0.495745 10.0819C0.576804 10.2084 0.717337 10.2858 0.868882 10.2858H3.64561L2.69404 15.3427C2.65439 15.5545 2.77686 15.7623 2.98304 15.8328C3.03017 15.8493 3.07907 15.8571 3.12709 15.8571C3.28657 15.8571 3.43943 15.771 3.51741 15.6245L8.2356 6.74943C8.30696 6.61464 8.30168 6.45289 8.2215 6.32244C8.1422 6.19243 7.99947 6.11286 7.84528 6.11286H5.04564L5.82188 0.638079C5.85227 0.425888 5.72055 0.223698 5.51262 0.161519C5.47033 0.14891 5.42803 0.142822 5.38574 0.142822Z" fill="#597393"/>
</svg>
