<svg width="25" height="24" viewBox="0 0 25 24" fill="none" xmlns="http://www.w3.org/2000/svg">
<path fill-rule="evenodd" clip-rule="evenodd" d="M18.2154 0.479492H6.35051C6.24967 0.543569 6.14834 0.606987 6.04699 0.670419C5.67681 0.902095 5.30634 1.13396 4.95855 1.39875C4.42253 1.80273 3.94934 2.27921 3.47729 2.75454C3.37617 2.85636 3.2751 2.95813 3.17347 3.05913C2.67109 3.55914 2.24471 4.1316 1.88841 4.74444C1.28032 5.78485 0.729234 6.87513 0.447754 8.0545C0.348446 8.47817 0.262031 8.90484 0.175583 9.33168C0.118322 9.61441 0.0610467 9.89721 0 10.1793V12.2767C0.0390818 12.4699 0.0796582 12.6629 0.120239 12.8559C0.188182 13.1792 0.256137 13.5024 0.31711 13.8266C0.553458 15.0665 1.0606 16.2376 1.66987 17.3374C2.22214 18.3267 2.94544 19.2115 3.76494 19.9918C5.13314 21.3992 6.89328 22.3945 8.771 22.9456C9.54212 23.2068 10.3474 23.322 11.1504 23.4369C11.3406 23.4641 11.5306 23.4913 11.72 23.5204H12.8649C13.4706 23.4337 14.0775 23.3435 14.6809 23.239C16.9577 22.7912 19.1062 21.6843 20.7582 20.05C22.5077 18.4265 23.7203 16.2471 24.2476 13.924C24.3562 13.3963 24.4385 12.8633 24.5208 12.3304C24.542 12.1929 24.5632 12.0554 24.5849 11.918V10.5379C24.5414 10.2446 24.4935 9.95198 24.4456 9.65951C24.4111 9.44878 24.3767 9.2381 24.3438 9.02721C24.098 7.44403 23.4329 5.95706 22.6074 4.59598C22.0956 3.74798 21.4019 3.03537 20.7 2.34533C19.9684 1.60779 19.1121 1.00088 18.2154 0.479492ZM5.71051 4.20808C6.14735 3.78704 6.59814 3.35256 7.17476 3.14345C7.52062 3.06892 7.87474 3.07765 8.22839 3.08636C8.3763 3.09 8.52413 3.09365 8.67123 3.09119C11.1247 3.09357 13.5783 3.09238 16.0329 3.09119H16.0336C16.1726 3.09262 16.3119 3.08936 16.4514 3.0861C16.7781 3.07847 17.1054 3.07082 17.4292 3.12326C17.6769 3.19845 17.8801 3.36441 18.0793 3.52714C18.1255 3.5649 18.1715 3.60248 18.2178 3.63871C19.485 4.65655 20.5504 5.96062 21.1525 7.47966C21.535 8.46662 21.8699 9.50109 21.8568 10.5712C21.8548 10.7656 21.8569 10.9604 21.859 11.1551C21.8643 11.6599 21.8697 12.1649 21.8046 12.6663C21.3936 15.1402 20.0563 17.4906 18.0064 18.9633C16.4173 20.1284 14.4588 20.8719 12.4706 20.7947C12.3513 20.7939 12.2319 20.7946 12.1124 20.7953C11.6917 20.7976 11.2704 20.7999 10.8542 20.7389C9.85178 20.5833 8.87908 20.2603 7.961 19.8291C6.40277 19.0227 5.031 17.816 4.12718 16.3017C3.30412 14.9763 2.74472 13.4561 2.70672 11.8836C2.47868 9.12222 3.5369 6.27773 5.54764 4.36439C5.60186 4.3128 5.65608 4.26054 5.71051 4.20808ZM8.9517 4.55639C8.09776 4.71316 7.53361 5.57185 7.51936 6.40441C7.5538 6.79991 7.69633 7.19065 7.93505 7.50895C8.35311 8.02203 9.05384 8.31301 9.713 8.18237C10.2011 8.0826 10.6548 7.78687 10.9327 7.37118C11.2059 6.95549 11.213 6.42935 11.1572 5.95191C11.0194 4.96376 9.89472 4.30697 8.9517 4.55639ZM14.7713 4.5552C14.0195 4.70366 13.4091 5.40676 13.4055 6.17994C13.3936 6.69183 13.4874 7.25835 13.8639 7.63603C14.1917 7.95671 14.6276 8.18237 15.0896 8.20849C15.8272 8.25838 16.5718 7.813 16.8735 7.13721C17.0184 6.8201 17.1574 6.46261 17.0647 6.10987C16.978 5.7595 16.8224 5.42458 16.5992 5.14072C16.1763 4.60508 15.4222 4.40674 14.7713 4.5552ZM6.321 8.26075C5.61789 8.32014 4.89578 8.65862 4.52523 9.28216C4.08579 9.94013 4.00265 10.8392 4.36727 11.5494C4.52285 11.8535 4.70694 12.1516 4.96467 12.3808C5.89106 13.1528 7.41366 13.0507 8.19634 12.1195C8.61084 11.572 8.92438 10.8582 8.73317 10.1634C8.51939 9.066 7.46592 8.15267 6.321 8.26075ZM12.1418 8.25956C11.5693 8.2952 11.023 8.56123 10.6109 8.95198C9.97667 9.63727 9.75695 10.7097 10.1738 11.5625C10.4601 12.2133 11.0871 12.6611 11.7641 12.8345C12.5183 13.0471 13.339 12.7573 13.9126 12.2537C14.6644 11.4984 14.8901 10.1765 14.2297 9.29284C13.7808 8.60637 12.9565 8.21087 12.1418 8.25956ZM17.3878 8.36883C16.5635 8.63962 15.9685 9.41636 15.8319 10.2632C15.7013 10.8143 15.9151 11.3701 16.193 11.838C16.5659 12.4996 17.326 12.8666 18.0659 12.9058C18.7845 12.8998 19.5434 12.6183 19.9615 12.0067C20.5268 11.2858 20.6076 10.2252 20.1491 9.43062C19.8558 8.89972 19.3569 8.44366 18.7417 8.34508C18.294 8.28332 17.8308 8.26788 17.3878 8.36883ZM8.95408 13.3476C8.22009 13.5281 7.53005 14.0186 7.2557 14.7419C6.87089 15.597 7.11436 16.6493 7.74502 17.3192C8.50988 18.0543 9.79614 18.1695 10.675 17.5698C11.8568 16.8548 12.0325 14.9735 11.0278 14.0364C10.4969 13.5055 9.70588 13.1623 8.95408 13.3476ZM14.7737 13.3464C14.1466 13.4925 13.5955 13.8987 13.2321 14.4236C12.9209 14.8916 12.8972 15.4854 12.9542 16.027C13.0504 16.894 13.738 17.6197 14.5563 17.8703C15.5006 18.128 16.6383 17.7847 17.1574 16.9237C17.4115 16.4878 17.5837 15.9807 17.554 15.4711C17.4602 14.8547 17.1728 14.2431 16.7013 13.8262C16.1562 13.4343 15.4435 13.1979 14.7737 13.3464ZM9.08463 5.50539C9.5015 5.34505 9.96707 5.6396 10.1797 5.99353C10.2486 6.22869 10.2486 6.4876 10.1809 6.72276C9.99558 7.01849 9.65115 7.28334 9.28653 7.24296C8.91479 7.14082 8.50623 6.84153 8.53473 6.41278C8.48366 6.02084 8.75683 5.67998 9.08463 5.50539ZM15.0122 5.49948C15.2569 5.4104 15.5158 5.53036 15.7248 5.65388C16.1797 5.94248 16.207 6.6729 15.7961 7.01139C15.5977 7.15273 15.3531 7.27031 15.1037 7.24299C14.8174 7.16817 14.5549 6.97814 14.4053 6.72279C14.3352 6.48763 14.3352 6.22871 14.4041 5.99355C14.5371 5.76196 14.7652 5.59331 15.0122 5.49948ZM7.46075 9.64537C7.13413 9.3437 6.68757 9.05272 6.22319 9.18218C5.69467 9.28194 5.19822 9.67981 5.11033 10.2309C5.06282 10.6062 5.06045 11.0243 5.28136 11.3509C5.54027 11.7701 6.04385 11.9898 6.52485 11.9958C7.03912 11.9708 7.46075 11.5884 7.72085 11.1703C7.97145 10.6822 7.8895 10.0112 7.46075 9.64537ZM12.0395 9.17904C12.4754 9.0769 12.9255 9.27762 13.2557 9.55197C13.7771 10.0342 13.8092 10.9285 13.3733 11.476C12.9493 11.957 12.1713 12.1874 11.6167 11.7848C11.0122 11.4653 10.7402 10.6862 11.0027 10.0579C11.2188 9.65174 11.587 9.29781 12.0395 9.17904ZM19.194 9.66952C18.8555 9.3239 18.3507 9.06737 17.859 9.17901C17.2236 9.36547 16.6429 9.99138 16.7331 10.6885C16.7688 11.337 17.3293 11.8881 17.9588 11.9855C18.6251 12.0532 19.3615 11.6066 19.4731 10.9178C19.5301 10.4914 19.5242 9.99257 19.194 9.66952ZM8.95478 14.2993C9.77072 14.0071 10.6496 14.6639 10.7957 15.468C10.8574 16.1331 10.4168 16.8718 9.72677 16.9835C9.29802 17.031 8.79207 17.044 8.45477 16.7281C8.14716 16.43 7.96426 15.9989 7.96189 15.5701C8.01771 15.0107 8.3847 14.4395 8.95478 14.2993ZM16.5668 15.2754C16.3601 14.5343 15.5157 14.0461 14.7734 14.2967C14.2152 14.5117 13.8363 15.096 13.7876 15.6827C13.8244 16.3526 14.4135 16.9607 15.0869 16.9999C15.4206 17.0201 15.7948 17.0058 16.0644 16.7802C16.4848 16.4227 16.7675 15.8217 16.5668 15.2754Z" fill="#00BA6C"/>
</svg>
