<svg width="45" height="47" viewBox="0 0 45 47" fill="none" xmlns="http://www.w3.org/2000/svg">
<path d="M35.0624 6.46826H9.93764C7.95535 6.46826 6.34839 8.16279 6.34839 10.2531V36.7469C6.34839 38.8372 7.95535 40.5317 9.93764 40.5317H35.0624C37.0447 40.5317 38.6516 38.8372 38.6516 36.7469V10.2531C38.6516 8.16279 37.0447 6.46826 35.0624 6.46826Z" stroke="#597393" stroke-width="2" stroke-linecap="round" stroke-linejoin="round"/>
<path d="M16.2188 19.7151C17.7055 19.7151 18.9108 18.4442 18.9108 16.8765C18.9108 15.3087 17.7055 14.0378 16.2188 14.0378C14.7321 14.0378 13.5269 15.3087 13.5269 16.8765C13.5269 18.4442 14.7321 19.7151 16.2188 19.7151Z" stroke="#597393" stroke-width="2" stroke-linecap="round" stroke-linejoin="round"/>
<path d="M38.6516 29.1771L29.6785 19.7151L9.93764 40.5316" stroke="#597393" stroke-width="2" stroke-linecap="round" stroke-linejoin="round"/>
</svg>
