<svg width="37" height="33" viewBox="0 0 37 33" fill="none" xmlns="http://www.w3.org/2000/svg">
<path fill-rule="evenodd" clip-rule="evenodd" d="M5.14995 5.37499C2.69228 5.37499 0.699951 7.36732 0.699951 9.82499V27.625C0.699951 30.0827 2.69228 32.075 5.14995 32.075H31.8499C34.3076 32.075 36.2999 30.0827 36.2999 27.625V9.82499C36.2999 7.36732 34.3076 5.37499 31.8499 5.37499H28.3216C27.7315 5.37499 27.1655 5.14057 26.7483 4.7233L24.2533 2.22836C23.4188 1.39383 22.2869 0.924988 21.1067 0.924988H15.8932C14.713 0.924988 13.5811 1.39382 12.7466 2.22836L10.2516 4.7233C9.83437 5.14057 9.26843 5.37499 8.67833 5.37499H5.14995ZM18.5 25.4C22.1865 25.4 25.175 22.4115 25.175 18.725C25.175 15.0385 22.1865 12.05 18.5 12.05C14.8135 12.05 11.825 15.0385 11.825 18.725C11.825 22.4115 14.8135 25.4 18.5 25.4Z" fill="white"/>
</svg>
